<svg width="40" height="40" viewBox="0 0 40 40" fill="none" xmlns="http://www.w3.org/2000/svg">
  <!-- Background circle -->
  <circle cx="20" cy="20" r="20" fill="#4F46E5"/>
  
  <!-- SKIDS text stylized -->
  <g transform="translate(8, 12)">
    <!-- S -->
    <path d="M2 4C2 2 3 1 5 1C7 1 8 2 8 4C8 5 7 6 6 6H4C3 6 2 7 2 8C2 9 3 10 5 10H8" 
          stroke="white" stroke-width="1.5" stroke-linecap="round" fill="none"/>
    
    <!-- K -->
    <path d="M10 1V10M10 5.5L14 1M10 5.5L14 10" 
          stroke="white" stroke-width="1.5" stroke-linecap="round" fill="none"/>
    
    <!-- I -->
    <path d="M16 1V10M15 1H17M15 10H17" 
          stroke="white" stroke-width="1.5" stroke-linecap="round" fill="none"/>
    
    <!-- D -->
    <path d="M19 1V10H22C23 10 24 9 24 7.5V3.5C24 2 23 1 22 1H19Z" 
          stroke="white" stroke-width="1.5" stroke-linecap="round" fill="none"/>
  </g>
  
  <!-- Decorative elements -->
  <circle cx="32" cy="8" r="2" fill="white" opacity="0.3"/>
  <circle cx="8" cy="32" r="1.5" fill="white" opacity="0.2"/>
  <circle cx="35" cy="35" r="1" fill="white" opacity="0.4"/>
</svg>